<svg width="258" height="256" viewBox="0 0 258 256" fill="none" xmlns="http://www.w3.org/2000/svg">
<g clip-path="url(#clip0_163_784)">
<path d="M225.339 219.087C220.107 224.572 215.155 228.11 211.243 230.905C165.257 263.76 110.846 254.182 99.2812 251.844C82.2049 248.39 49.1962 241.714 25.3308 213.769C-10.7748 171.49 -5.1528 104.88 22.8536 60.9106C27.9761 52.8677 55.0359 8.22857 110.034 1.06971C143.318 -3.26309 182.118 5.47566 210.214 28.9152C269.194 78.1175 264.995 177.516 225.339 219.087Z" fill="white"/>
<path d="M183.547 164.487C178.976 164.992 171.28 165.843 163.633 161.73C149.73 154.252 145.013 135.224 146.387 121.248C147.567 109.242 154.816 98.6732 169.313 77.5324C182.967 57.6224 188.797 53.5108 187.25 45.5789C185.045 34.2712 170.964 31.1874 170.383 17.6169C170.313 15.9882 170.073 10.3957 173.702 6.6997C179.912 0.374025 193.096 4.04824 200.189 7.88453C207.03 11.5847 216.23 19.7792 216.263 29.5721C216.287 36.6665 211.48 38.5735 212.872 44.5137C214.273 50.49 219.563 50.362 225.621 58.5901C228.041 61.8769 232.9 68.4761 232.398 76.1575C231.749 86.091 222.725 88.8432 224.103 96.283C225.099 101.658 230.136 101.979 232.51 107.679C235.637 115.184 230.716 123.773 226.524 130.866C221.591 139.22 208.276 161.754 183.547 164.487Z" fill="url(#paint0_linear_163_784)"/>
<path opacity="0.16" d="M177.973 8.62606C175.242 13.3039 192.831 20.3497 197.282 38.3407C202.07 57.6985 188.729 77.9172 182.563 87.2619C172.043 103.205 164.835 104.198 160.133 118.848C158.272 124.647 154.396 136.726 160.794 148.033C161.388 149.083 168.191 160.697 180.297 162.075C194.028 163.639 204.143 150.845 212.858 139.823C218.124 133.162 228.644 119.856 224.064 112.713C221.264 108.345 213.464 107.288 208.015 108.461C200.236 110.137 196.177 116.59 194.97 115.669C193.883 114.84 196.129 108.808 200.428 103.116C209.027 91.7352 217.045 93.3616 222.892 83.7687C223.601 82.6064 229.084 73.3125 225.257 64.7859C223.051 59.8682 217.691 55.0775 213.258 55.9192C208.246 56.8716 206.583 64.6177 205.091 64.1438C203.665 63.6908 204.319 56.3336 206.035 49.1566C208.556 38.6127 211.27 37.2465 211.25 31.3186C211.22 22.2747 204.873 15.7552 203.946 14.8299C195.271 6.16983 180.308 4.62717 177.973 8.62606Z" fill="white"/>
<path d="M254.532 82.8303C252.19 78.8798 247.673 75.5644 243.508 73.7278C213.979 60.7058 186.784 122.353 186.337 138.152C185.892 153.951 181.211 157.511 154.685 156.338C128.158 155.164 134.479 173.51 134.39 182.88C134.301 192.249 137.527 201.349 117.151 203.376C96.7757 205.401 100.975 212.696 100.975 212.696C100.975 212.696 121.257 256.978 123.264 245.853C125.27 234.727 134.185 220.04 163.382 229.164C175.958 233.093 197.056 234.004 206.027 222.268C208.116 219.535 210.493 215.068 210.899 211.608C211.461 206.81 209.807 202.275 209.691 197.527C209.422 186.461 221.432 182.741 229.207 178.201C233.267 175.831 237.355 173.374 240.921 170.29C248.323 163.888 249.733 154.676 247.482 145.517C246.402 141.124 244.483 136.186 244.978 131.587C245.511 126.646 248.709 120.784 250.655 116.204C252.181 112.612 253.845 109.086 254.963 105.336C257.042 98.3615 258.447 89.4346 254.532 82.8303Z" fill="url(#paint1_linear_163_784)"/>
<g opacity="0.8">
<g opacity="0.8">
<path opacity="0.8" d="M91.8199 230.18C91.5902 230.18 91.3909 230.017 91.3586 229.794C91.3236 229.55 91.5022 229.324 91.7571 229.291C91.9142 229.27 107.64 227.163 126.513 221.272C143.903 215.845 167.598 206.003 181.727 189.943C193.527 176.529 208.596 152.827 223.07 124.912C236.049 99.8819 243.805 80.7345 243.805 76.6844C243.805 76.4377 244.014 76.2384 244.271 76.2384C244.527 76.2384 244.736 76.4386 244.736 76.6844C244.736 81.422 235.586 102.781 223.905 125.309C209.399 153.284 194.286 177.052 182.44 190.518C168.167 206.742 144.297 216.662 126.787 222.126C107.837 228.039 92.0416 230.155 91.8846 230.175C91.8621 230.179 91.8406 230.18 91.8199 230.18Z" fill="white"/>
</g>
<g opacity="0.8">
<path opacity="0.8" d="M223.945 123.531C223.72 123.531 223.536 123.376 223.535 123.156C223.532 122.866 223.216 94.0259 212.777 83.9022C212.616 83.7465 212.616 83.4996 212.777 83.3439C212.937 83.1882 213.197 83.1913 213.358 83.347C224.035 93.7015 224.349 121.951 224.356 123.149C224.358 123.369 224.175 123.53 223.948 123.53C223.947 123.531 223.946 123.531 223.945 123.531Z" fill="white"/>
</g>
<g opacity="0.8">
<path opacity="0.8" d="M205.575 156.667C205.43 156.667 205.295 156.547 205.243 156.353C205.178 156.105 205.273 155.833 205.456 155.745C205.535 155.706 213.494 151.88 222.6 149.849C234.901 147.104 243.328 148.763 247.645 154.779C247.78 154.968 247.776 155.269 247.637 155.452C247.498 155.635 247.275 155.63 247.139 155.442C237.208 141.599 206.007 156.488 205.694 156.64C205.654 156.659 205.614 156.667 205.575 156.667Z" fill="white"/>
</g>
<g opacity="0.8">
<path opacity="0.8" d="M143.588 215.59C143.536 215.59 143.485 215.582 143.434 215.564C143.185 215.479 143.052 215.209 143.138 214.96C143.182 214.83 147.641 201.729 149.851 187.032C151.879 173.558 152.386 155.95 143.288 148.584C143.083 148.419 143.052 148.119 143.218 147.915C143.384 147.711 143.684 147.68 143.888 147.846C151.474 153.987 153.796 167.223 150.792 187.186C148.567 201.966 144.084 215.137 144.039 215.268C143.971 215.466 143.786 215.59 143.588 215.59Z" fill="white"/>
</g>
<g opacity="0.8">
<path opacity="0.8" d="M169.676 201.205C169.471 201.205 169.282 201.073 169.221 200.867C169.144 200.615 169.287 200.351 169.539 200.275C171.365 199.728 214.398 186.966 226.811 194.116C227.04 194.247 227.117 194.538 226.985 194.766C226.854 194.994 226.563 195.072 226.335 194.94C214.273 187.992 170.255 201.053 169.813 201.185C169.768 201.199 169.722 201.205 169.676 201.205Z" fill="white"/>
</g>
</g>
<path d="M46.7438 41.7289C45.8485 77.7015 42.9434 201.786 44.3299 245.757C44.4768 250.416 48.2266 254.155 52.9048 254.307C76.0429 255.061 142.604 256.972 180.449 255.391C188.331 255.062 194.6 248.704 194.763 240.849C195.55 203.091 197.284 96.8914 193.161 48.2414C192.667 42.4128 188.072 37.7701 182.226 37.1886C157.029 34.6789 90.104 28.5431 57.4075 30.656C51.511 31.0373 46.8897 35.8464 46.7438 41.7289Z" fill="url(#paint2_linear_163_784)"/>
<path d="M56.145 52.9061C54.8816 82.368 50.8948 180.379 52.1601 216.622C52.3446 221.919 56.538 226.203 61.8524 226.512C83.7318 227.787 139.851 230.598 171.943 228.039C177.722 227.579 182.256 222.925 182.569 217.161C184.195 187.104 188.865 95.8418 187.652 60.0055C187.458 54.2885 183.011 49.6201 177.289 49.1081C153.619 46.9916 92.8254 41.9566 65.5545 43.4386C60.4356 43.7166 56.3644 47.8062 56.145 52.9061Z" fill="url(#paint3_linear_163_784)"/>
<path opacity="0.5" d="M103.926 36.9417C103.926 38.0453 104.79 38.9559 105.897 39.0135C111.362 39.2988 126.757 40.1052 133.637 40.502C134.993 40.5806 136.058 39.3664 135.801 38.0371L135.757 37.8103C135.582 36.9033 134.826 36.2213 133.903 36.1372C129.252 35.7129 115.219 34.5363 105.921 34.8663C104.805 34.9075 103.926 35.8291 103.926 36.9417Z" fill="white"/>
<path opacity="0.8" d="M165.141 159.14L72.1159 157.361C69.0832 157.304 66.7996 160.821 67.0503 165.178C67.2982 169.49 70.4614 170.79 73.4335 170.746L164.437 171.471C166.301 171.442 167.964 168.715 168.169 165.356C168.375 161.969 167.028 159.176 165.141 159.14Z" fill="white"/>
<path opacity="0.8" d="M165.392 187.552L72.3675 185.774C69.3348 185.716 67.0512 189.233 67.3019 193.59C67.5498 197.903 70.7129 199.203 73.6851 199.158L164.689 199.883C166.553 199.855 168.216 197.127 168.42 193.768C168.627 190.382 167.28 187.588 165.392 187.552Z" fill="white"/>
<path d="M125.452 163.025L74.9677 162.503C73.3224 162.486 72.0847 163.43 72.2224 164.601C72.3592 165.759 74.0762 166.11 75.6894 166.099L125.077 166.338C126.088 166.331 126.989 165.599 127.098 164.698C127.21 163.787 126.477 163.036 125.452 163.025Z" fill="#373B71"/>
<path d="M42.1438 132.211C42.1438 132.211 39.4094 133.535 38.9072 135.056C38.5041 136.277 35.4805 136.434 35.1821 138.834C35.0279 140.074 34.1069 141.066 32.8674 141.255C29.7795 141.726 25.0215 143.323 24.2603 148.661C23.6791 152.735 25.7652 154.28 27.9542 154.815C29.5619 155.208 30.6307 156.765 30.3056 158.382C29.9935 159.932 30.459 161.724 33.1566 163.142C39.201 166.318 45.2371 155.618 45.2371 155.618L46.4739 136.935L42.1438 132.211Z" fill="url(#paint4_linear_163_784)"/>
<path d="M75.0339 127.782C75.0339 127.782 62.9653 146.79 48.6141 150.462C48.6141 150.462 51.4109 158.393 53.5686 159.301C53.5686 159.301 71.2244 144.632 75.762 130.483L75.0339 127.782Z" fill="url(#paint5_linear_163_784)"/>
<path d="M17.2987 249.359L16.9075 252.56C16.8332 253.168 16.3529 253.648 15.7424 253.718C14.7112 253.835 13.0576 253.956 11.4388 253.785C10.7282 253.71 10.2672 252.994 10.4839 252.315C10.8787 251.079 11.6004 249.224 12.6407 248.132H16.2079C16.8671 248.133 17.3776 248.707 17.2987 249.359Z" fill="url(#paint6_linear_163_784)"/>
<path d="M45.2362 211.851L45.8385 215.377C45.8385 215.377 43.8222 235.713 43.4641 243.847C43.4081 245.123 43.7395 246.383 44.4117 247.47L47.9173 253.138L39.0072 247.903L38.83 246.821L40.289 244.824L38.3783 222.043C38.2663 220.705 38.5435 219.363 39.1771 218.178L41.0199 214.73L45.2362 211.851Z" fill="url(#paint7_linear_163_784)"/>
<path d="M48.503 253.959H45.6594C45.1269 253.959 44.6256 253.716 44.3005 253.296C43.4145 252.15 41.5781 249.912 40.6994 249.853C39.5177 249.775 39.6683 253.959 39.6683 253.959H39.0054L38.1661 248.759C37.955 247.451 38.6087 246.154 39.7886 245.542C39.7886 245.542 40.0585 247.532 41.5239 248.411C42.9894 249.292 47.4866 252.443 47.4866 252.443C47.4866 252.443 48.0375 252.365 48.6426 252.474C49.5406 252.636 49.4148 253.959 48.503 253.959Z" fill="url(#paint8_linear_163_784)"/>
<path d="M33.0326 213.526C33.0326 213.526 21.2211 235.835 19.3434 240.93C17.4657 246.023 16.8083 250.273 16.7826 250.675C16.7431 251.304 15.958 251.907 13.793 251.907C12.6755 251.907 12.1283 251.461 11.8602 251.029C11.6316 250.661 11.6196 250.2 11.8125 249.812C12.4956 248.435 14.6643 244.036 15.4668 242.04C16.4254 239.657 18.4876 228.859 19.6188 225.104C20.75 221.35 22.0281 217.277 26.9542 213.526C26.9551 213.526 30.3359 210.228 33.0326 213.526Z" fill="url(#paint9_linear_163_784)"/>
<path d="M40.4947 176.97C43.5412 164.114 35.823 156.843 35.823 156.843C40.693 152.188 49.5663 150.07 49.5663 150.07C49.5663 150.07 58.0338 156.234 57.0293 161.059C56.4408 163.887 51.0777 177.997 51.0777 177.997C51.0777 177.997 46.1186 180.334 40.4947 176.97Z" fill="#1D9BF0"/>
<path d="M33.7387 183.334C34.9782 179.615 40.4937 176.97 40.4937 176.97C46.1176 180.334 51.0767 177.997 51.0767 177.997C51.0767 177.997 52.1886 182.23 51.421 186.163C50.6534 190.096 45.8375 215.377 45.8375 215.377C38.2497 216.909 26.5796 213.837 26.5796 213.837C31.4138 205.293 32.4991 187.054 33.7387 183.334Z" fill="#373B71"/>
<path d="M44.0305 141.574L41.5533 152.654C41.3164 153.629 42.2098 153.47 43.2005 153.284C44.8229 152.979 46.9146 152.352 47.6133 151.094C47.6849 150.966 47.7198 150.822 47.74 150.676L48.8042 142.993C48.8887 142.384 48.5581 141.792 47.9925 141.543L45.9385 140.636C45.1498 140.288 44.2344 140.738 44.0305 141.574Z" fill="url(#paint10_linear_163_784)"/>
<path d="M48.7758 131.474C48.7758 131.474 51.4128 133.252 52.5459 137.778C53.6789 142.305 51.837 143.929 49.9502 143.829C48.0624 143.729 45.3253 143.148 42.9536 139.9C40.582 136.655 45.3198 129.303 48.7758 131.474Z" fill="url(#paint11_linear_163_784)"/>
<path d="M45.3455 138.076C45.3455 138.076 44.3795 131.59 49.7876 132.582L50.8812 133.716C50.8812 133.716 53.5283 130.747 50.5993 128.504C47.6694 126.26 43.6046 126.834 41.3551 130.919C39.1055 135.004 38.2892 137.875 40.1752 140.414C42.0602 142.953 43.4788 140.775 43.4788 140.775C43.4788 140.775 42.6139 138.578 43.3319 137.636C44.049 136.693 44.9745 138.184 44.9745 138.184L45.3455 138.076Z" fill="url(#paint12_linear_163_784)"/>
<path d="M44.6063 138.631C44.6063 138.631 44.1288 135.294 42.4173 136.248C40.7058 137.202 43.0344 139.366 43.9681 140.102L44.6063 138.631Z" fill="url(#paint13_linear_163_784)"/>
<path d="M74.9504 131.696C74.9871 132.088 73.5226 132.358 73.0562 130.687C73.1847 129.961 73.4115 126.783 73.9707 126.289C76.9465 123.66 82.2545 120.701 82.2545 120.701C82.8477 121.604 82.07 122.198 82.07 122.198L79.421 123.978C79.6974 124.89 80.1004 125.695 80.1464 126.736C80.1812 127.524 79.8883 128.295 79.3631 128.892C78.8361 129.492 78.1264 130.267 77.4864 130.854C76.2753 131.969 74.9504 131.696 74.9504 131.696Z" fill="url(#paint14_linear_163_784)"/>
<path d="M76.3882 130.399L75.9861 130.235C76.0402 130.105 77.311 127.029 77.9253 126.389C78.1594 126.146 78.2723 125.937 78.2622 125.769C78.2567 125.678 78.2117 125.587 78.1245 125.495L75.9787 126.637L75.0321 128.113L74.6666 127.881L75.6748 126.31L78.1842 124.974L78.2962 125.065C78.5496 125.271 78.6809 125.493 78.6965 125.743C78.7149 126.04 78.5661 126.35 78.2411 126.688C77.7765 127.17 76.7463 129.531 76.3882 130.399Z" fill="url(#paint15_linear_163_784)"/>
<path d="M35.823 156.843C35.823 156.843 22.1099 184.88 17.1435 187.331C17.1435 187.331 12.1008 187.856 9.01571 188.784C8.23984 189.019 8.26555 190.116 9.04784 190.329C11.1964 190.912 14.7571 191.4 18.0203 189.637C18.0203 189.637 16.2675 192.253 17.2904 193.272C17.2904 193.272 19.6271 190.509 20.504 189.637C21.2753 188.869 35.3189 173.623 41.2228 164.429C41.7002 163.686 41.3688 161.478 41.0373 160.661C40.2734 158.779 38.5812 155.774 35.823 156.843Z" fill="url(#paint16_linear_163_784)"/>
<path opacity="0.8" d="M119.883 140.486C142.601 140.486 161.017 122.148 161.017 99.5273C161.017 76.9062 142.601 58.5682 119.883 58.5682C97.1659 58.5682 78.7498 76.9062 78.7498 99.5273C78.7498 122.148 97.1659 140.486 119.883 140.486Z" fill="white"/>
<path d="M133.225 84.7817C133.225 91.7696 127.536 99.3143 120.518 99.3143C113.5 99.3143 107.811 91.7705 107.811 84.7817C107.811 77.7938 113.5 72.8357 120.518 72.8357C127.536 72.8366 133.225 77.7938 133.225 84.7817Z" fill="url(#paint17_linear_163_784)"/>
<path d="M104.748 126.219H135.768C139.033 126.219 141.924 124.117 142.92 121.02L144.589 115.825C145.811 112.022 143.824 107.903 140.057 106.532C127.433 101.936 114.379 102.525 101.007 106.956C97.2613 108.197 95.1825 112.187 96.2164 115.982L97.5018 120.699C98.3888 123.958 101.358 126.219 104.748 126.219Z" fill="url(#paint18_linear_163_784)"/>
<path d="M81.2831 192.365C81.2243 194.184 79.7001 195.643 77.8766 195.624C76.0513 195.605 74.6171 194.111 74.6758 192.288C74.7346 190.465 76.2634 189.006 78.0887 189.029C79.9122 189.052 81.3409 190.545 81.2831 192.365Z" fill="#373B71"/>
<path d="M93.6417 192.508C93.583 194.32 92.0716 195.773 90.2628 195.755C88.4522 195.736 87.0299 194.248 87.0887 192.432C87.1474 190.617 88.6643 189.163 90.4749 189.186C92.2828 189.209 93.6996 190.696 93.6417 192.508Z" fill="#373B71"/>
<path d="M106.891 192.726C106.832 194.545 105.308 196.005 103.485 195.985C101.659 195.966 100.225 194.472 100.284 192.649C100.343 190.826 101.871 189.367 103.697 189.39C105.521 189.414 106.95 190.907 106.891 192.726Z" fill="#373B71"/>
<path d="M133.098 193.036C133.039 194.848 131.528 196.301 129.719 196.283C127.908 196.263 126.486 194.776 126.545 192.96C126.604 191.144 128.12 189.691 129.931 189.713C131.739 189.737 133.156 191.224 133.098 193.036Z" fill="#373B71"/>
<path d="M146.347 193.254C146.288 195.073 144.764 196.532 142.941 196.513C141.115 196.494 139.681 195 139.74 193.177C139.799 191.354 141.328 189.894 143.153 189.917C144.977 189.941 146.406 191.434 146.347 193.254Z" fill="#373B71"/>
<path d="M119.25 192.87C119.191 194.682 117.68 196.134 115.871 196.116C114.06 196.097 112.638 194.609 112.697 192.794C112.756 190.978 114.272 189.524 116.083 189.548C117.892 189.57 119.309 191.057 119.25 192.87Z" fill="#373B71"/>
</g>
<defs>
<linearGradient id="paint0_linear_163_784" x1="233.103" y1="60.8077" x2="132.385" y2="109.252" gradientUnits="userSpaceOnUse">
<stop offset="0.00359712" stop-color="#E38DDD"/>
<stop offset="1" stop-color="#9571F6"/>
</linearGradient>
<linearGradient id="paint1_linear_163_784" x1="100.618" y1="159.79" x2="257.01" y2="159.79" gradientUnits="userSpaceOnUse">
<stop stop-color="#FF9BA6"/>
<stop offset="0.9964" stop-color="#FE8598"/>
</linearGradient>
<linearGradient id="paint2_linear_163_784" x1="43.9612" y1="143.11" x2="195.805" y2="143.11" gradientUnits="userSpaceOnUse">
<stop stop-color="#4953A3"/>
<stop offset="1" stop-color="#150E42"/>
</linearGradient>
<linearGradient id="paint3_linear_163_784" x1="158.181" y1="85.769" x2="-146.3" y2="476.935" gradientUnits="userSpaceOnUse">
<stop stop-color="#3897F0"/>
<stop offset="0.6645" stop-color="#0074E0"/>
<stop offset="1" stop-color="#07447D"/>
</linearGradient>
<linearGradient id="paint4_linear_163_784" x1="194.273" y1="-216.901" x2="161.321" y2="-140.1" gradientUnits="userSpaceOnUse">
<stop stop-color="#485CF8"/>
<stop offset="1" stop-color="#150E42"/>
</linearGradient>
<linearGradient id="paint5_linear_163_784" x1="51.7052" y1="155.884" x2="82.5411" y2="115.665" gradientUnits="userSpaceOnUse">
<stop stop-color="#F9B776"/>
<stop offset="1" stop-color="#F47960"/>
</linearGradient>
<linearGradient id="paint6_linear_163_784" x1="17.3066" y1="251.001" x2="10.4299" y2="251.001" gradientUnits="userSpaceOnUse">
<stop stop-color="#A737D5"/>
<stop offset="1" stop-color="#EF497A"/>
</linearGradient>
<linearGradient id="paint7_linear_163_784" x1="46.3644" y1="278.004" x2="36.5515" y2="162.827" gradientUnits="userSpaceOnUse">
<stop stop-color="#F9B776"/>
<stop offset="1" stop-color="#F47960"/>
</linearGradient>
<linearGradient id="paint8_linear_163_784" x1="49.2553" y1="249.751" x2="38.1282" y2="249.751" gradientUnits="userSpaceOnUse">
<stop stop-color="#A737D5"/>
<stop offset="1" stop-color="#EF497A"/>
</linearGradient>
<linearGradient id="paint9_linear_163_784" x1="26.4577" y1="279.718" x2="16.6421" y2="164.51" gradientUnits="userSpaceOnUse">
<stop stop-color="#F9B776"/>
<stop offset="1" stop-color="#F47960"/>
</linearGradient>
<linearGradient id="paint10_linear_163_784" x1="47.2678" y1="127.454" x2="44.0812" y2="158.703" gradientUnits="userSpaceOnUse">
<stop stop-color="#F9B776"/>
<stop offset="1" stop-color="#F47960"/>
</linearGradient>
<linearGradient id="paint11_linear_163_784" x1="50.7598" y1="148.172" x2="40.5371" y2="116.813" gradientUnits="userSpaceOnUse">
<stop stop-color="#F9B776"/>
<stop offset="1" stop-color="#F47960"/>
</linearGradient>
<linearGradient id="paint12_linear_163_784" x1="265.813" y1="-185.828" x2="218.565" y2="-116.828" gradientUnits="userSpaceOnUse">
<stop stop-color="#2B3582"/>
<stop offset="1" stop-color="#150E42"/>
</linearGradient>
<linearGradient id="paint13_linear_163_784" x1="46.996" y1="149.399" x2="36.7734" y2="118.04" gradientUnits="userSpaceOnUse">
<stop stop-color="#F9B776"/>
<stop offset="1" stop-color="#F47960"/>
</linearGradient>
<linearGradient id="paint14_linear_163_784" x1="53.6413" y1="157.369" x2="84.4772" y2="117.149" gradientUnits="userSpaceOnUse">
<stop stop-color="#F9B776"/>
<stop offset="1" stop-color="#F47960"/>
</linearGradient>
<linearGradient id="paint15_linear_163_784" x1="77.1449" y1="123.765" x2="79.9568" y2="104.75" gradientUnits="userSpaceOnUse">
<stop stop-color="#F9B776"/>
<stop offset="1" stop-color="#F47960"/>
</linearGradient>
<linearGradient id="paint16_linear_163_784" x1="8.4463" y1="174.945" x2="41.4601" y2="174.945" gradientUnits="userSpaceOnUse">
<stop stop-color="#F9B776"/>
<stop offset="1" stop-color="#F47960"/>
</linearGradient>
<linearGradient id="paint17_linear_163_784" x1="120.518" y1="72.8357" x2="120.518" y2="99.3143" gradientUnits="userSpaceOnUse">
<stop stop-color="#6970D7"/>
<stop offset="1" stop-color="#373B71"/>
</linearGradient>
<linearGradient id="paint18_linear_163_784" x1="120.45" y1="103.348" x2="120.45" y2="126.219" gradientUnits="userSpaceOnUse">
<stop stop-color="#6970D7"/>
<stop offset="1" stop-color="#373B71"/>
</linearGradient>
<clipPath id="clip0_163_784">
<rect width="258" height="256" fill="white"/>
</clipPath>
</defs>
</svg>
